<?xml version="1.0" encoding="utf-8"?>
<!-- Generator: Adobe Illustrator 27.3.0, SVG Export Plug-In . SVG Version: 6.00 Build 0)  -->
<svg version="1.1" id="Layer_1" xmlns="http://www.w3.org/2000/svg" xmlns:xlink="http://www.w3.org/1999/xlink" x="0px" y="0px"
	 viewBox="0 0 354.5 89.5" style="enable-background:new 0 0 354.5 89.5;" xml:space="preserve">
<style type="text/css">
	.st0{fill:#E2EDAF;}
	.st1{font-family:'Montserrat-Bold';}
	.st2{font-size:36px;}
	.st3{letter-spacing:-2;}
</style>
<text transform="matrix(1 0 0 1 213.2001 78.7072)" class="st0 st1 st2">Jou</text>
<text transform="matrix(1 0 0 1 280.9901 78.7072)" class="st0 st1 st2">r</text>
<text transform="matrix(1 0 0 1 296.3601 78.7072)" class="st0 st1 st2">nal </text>
<text transform="matrix(1 0 0 1 42.0191 78.707)" class="st0 st1 st2 st3">W</text>
<text transform="matrix(1 0 0 1 81.9091 78.707)" class="st0 st1 st2">e</text>
<text transform="matrix(1 0 0 1 104.0791 78.707)" class="st0 st1 st2">at</text>
<text transform="matrix(1 0 0 1 141.9591 78.707)" class="st0 st1 st2">h</text>
<text transform="matrix(1 0 0 1 167.0491 78.707)" class="st0 st1 st2">er</text>
<path class="st0" d="M47,18.5c-2.8-1.5-4.6-4.8-3.8-8S47.1,5,50.5,5c4.3,0,8.1,2.7,11.4,5.2c3.5,2.6,7,5.2,10.9,7.2
	c4.5,2.3,9.3,3.8,14.3,4c1.3,0.1,2.5-1.2,2.5-2.5c0-1.5-1.2-2.3-2.5-2.5c-8.3-1.1-13.9,6.2-18.3,12.1c-4,5.3-9.4,11-16.5,11.5
	c-3.1,0.2-6.4-0.4-8.7-2.6c-1.9-1.8-3.2-4.6-2.8-7.3c0.9-6.6,9.5-7.4,14.6-7c4.5,0.4,8.9,1.4,13.4,1.1c4.2-0.3,8.2-1.5,11.3-4.3
	c2.4-2.1-1.1-5.7-3.5-3.5c-6,5.3-15.4,2-22.4,1.7s-15.8,2.1-18,9.8s3.2,14.8,10.2,16.7c8,2.2,15.9-1.6,21.5-7.2
	c3.3-3.2,5.6-7.1,8.6-10.6c2.7-3.1,6.3-5.9,10.6-5.3v-5c-4.7-0.2-9.2-1.9-13.3-4.2c-4.4-2.4-8.1-5.8-12.3-8.5S52-0.9,46.9,0.5
	c-4.2,1.2-7.7,4.9-8.6,9.2c-1,5.2,1.5,10.6,6.2,13.1C47.3,24.3,49.9,20,47,18.5C47,18.5,47,18.5,47,18.5z"/>
<path class="st0" d="M40.1,18.9c-5.9,2.5-11.3,6.1-14.6,11.8c-4.4,7.8-3.9,17.2-1.9,25.6c1.9,7.8,5.1,15.3,8.7,22.5
	c1.4,2.9,5.8,0.3,4.3-2.5c-5-10-9.8-21.4-9.5-32.6c0-1,0.1-1.9,0.2-2.9c-0.1,0.6,0-0.2,0-0.2c0-0.2,0.1-0.4,0.1-0.7
	c0.1-0.5,0.2-1,0.3-1.5c0.2-0.7,0.4-1.5,0.6-2.2c0.1-0.4,0.3-0.8,0.4-1.1c-0.2,0.6,0,0,0.1-0.1c0.1-0.2,0.2-0.5,0.3-0.7
	c0.3-0.6,0.6-1.2,1-1.8c0.2-0.3,0.4-0.6,0.6-0.9c0.1-0.1,0.2-0.3,0.3-0.4c0.2-0.4-0.3,0.3,0.2-0.2c0.9-1.1,1.9-2.1,2.9-3
	c0.2-0.1,1.1-0.9,0.6-0.5c0.3-0.2,0.6-0.5,1-0.7c0.6-0.4,1.2-0.8,1.9-1.2c0.7-0.4,1.4-0.8,2.1-1.1c0.3-0.2,0.7-0.3,1.1-0.5
	c0.2-0.1,0.3-0.1,0.5-0.2c0.7-0.3-0.2,0.1,0.2-0.1c1.2-0.5,2.1-1.7,1.8-3.1C42.8,19.5,41.3,18.4,40.1,18.9L40.1,18.9L40.1,18.9z"/>
<path class="st0" d="M33.5,76.6c-2.7-7.1-8.8-12.6-13.4-17.9c-1.6-1.8-3.1-3.6-5.1-4.8c-2.7-1.6-6.1-1.9-9.4-0.7
	c-1.7,0.6-3.3,1.6-4.5,3.4c-1.9,3-1.4,7.2,0.4,9.5s4.5,3.3,7.1,4.1C16,72.5,26,75,33.5,76.6"/>
</svg>
